<?xml version="1.0" encoding="utf-8"?>
<!DOCTYPE svg PUBLIC "-//W3C//DTD SVG 1.1//EN" "http://www.w3.org/Graphics/SVG/1.1/DTD/svg11.dtd">
<svg version="1.1" id="Layer_1" xmlns="http://www.w3.org/2000/svg" xmlns:xlink="http://www.w3.org/1999/xlink" x="0px" y="0px"
	 viewBox="0 0 200 100" enable-background="new 0 0 200 100" xml:space="preserve">
<rect fill="none" width="200" height="100"/>
<g>
	<path fill="#D4EBF2" d="M10.6,48.9c0,2-0.2,3.2-0.7,4.2c-0.7,1.5-2.5,2.6-4.3,2.6c-1.8,0-3.7-1.1-4.4-2.5c-0.5-1.1-0.7-2.3-0.7-4.2
		V25.4c0-2,0.2-3.2,0.7-4.2c0.7-1.4,2.5-2.5,4.3-2.5c1.9,0,3.7,1.1,4.4,2.5c0.5,1,0.7,2.3,0.7,4.2V48.9z"/>
	<path fill="#D4EBF2" d="M37.1,37.3c0-3-0.2-3.9-0.7-5.2c-0.8-2-3.3-3.5-5.5-3.5c-2.4,0-4.9,1.7-5.7,3.8c-0.5,1.1-0.5,2-0.5,4.6
		v11.9c0,2-0.2,3.2-0.7,4.2c-0.7,1.5-2.5,2.6-4.3,2.6c-1.8,0-3.7-1.1-4.4-2.5c-0.5-1.1-0.7-2.3-0.7-4.2V36.1c0-5.2,1.1-8.7,3.9-11.9
		c3-3.6,7.6-5.8,12.3-5.8c5.8,0,11.6,3.3,14.5,8.4c1.2,2.3,2,5.8,2,9.5v12.5c0,2-0.2,3.2-0.7,4.2c-0.7,1.5-2.5,2.6-4.3,2.6
		c-1.8,0-3.7-1.1-4.4-2.5c-0.5-1.1-0.7-2.3-0.7-4.2V37.3z"/>
	<path fill="#D4EBF2" d="M79.2,44.5c2.1,0,3.4,0.2,4.5,0.7c1.5,0.8,2.7,2.7,2.7,4.6c0,1.9-1.1,3.9-2.7,4.6c-1.1,0.5-2.4,0.7-4.5,0.7
		H58.5c-0.5,0-3.5-0.5-4-0.8c-1.7-0.6-3.3-2.7-3.3-4.5c0-1.4,0.9-3.5,2-4.5l19.2-18.9c1.4-1.4,2.3-3.1,2.3-4.7c0-3.3-3-6.4-6.4-6.4
		c-3,0-5.6,2.2-6.2,5c-0.2,0.9-0.2,0.9-0.2,2.9c0,3.3-2.4,5.8-5.8,5.8c-3.6,0-5.9-2.9-5.9-7.4c0-9.9,8-18,17.8-18
		c10.2,0,18.2,8.1,18.2,18.4c0,4.6-1.7,8.7-5,11.8L70,44.5H79.2z"/>
	<path fill="#D4EBF2" d="M108.6,51.5c-1.3,3.2-2.4,4.2-5,4.2s-3.8-1-4.9-4.2l-9.2-24.8c-0.8-2-0.8-2.4-0.8-3.5
		c0-2.6,2.3-4.7,4.9-4.7c2.7,0,3.9,1.3,5.2,5l4.9,14.8l5.7-15.5c1.1-3,2.6-4.2,5.1-4.2c2.4,0,4,1.2,5,3.9l5.8,15.9l4.5-14.6
		c1.1-3.8,2.6-5.2,5.2-5.2c2.8,0,5.2,2.2,5.2,4.9c0,1.1-0.1,1.4-0.8,3.6l-8.8,24.7c-1.1,3-2.4,4.1-4.9,4.1c-2.6,0-3.9-1.1-5.2-4.1
		l-6-14.9L108.6,51.5z"/>
	<path fill="#D4EBF2" d="M142.3,26c0-2.6,0.2-3.9,0.8-4.9c0.8-1.6,2.5-2.5,4.2-2.5c2,0,3.6,1.1,4.6,3c2.4-2.1,5-3.2,7.7-3.2
		c3.6,0,6.6,2.8,6.6,6.3c0,3.3-2.7,5.9-6.1,5.9c-1.4,0-1.7-0.1-3.6-1.3c-0.8-0.5-1.4-0.7-2-0.7c-1.6,0-2.2,1.3-2.2,4.6v15.6
		c0,2-0.2,3.2-0.7,4.2c-0.7,1.5-2.5,2.6-4.3,2.6c-1.8,0-3.7-1.1-4.4-2.5c-0.5-1.1-0.7-2.3-0.7-4.2V26z"/>
	<path fill="#D4EBF2" d="M190.3,20.6c2.3-1.7,3.2-2.2,4.8-2.2c2.6,0,4.9,2.5,4.9,5.2c0,2-0.8,3.2-3.6,5.2l-9.6,7l10.4,9.9
		c2.2,2.1,2.8,3.2,2.8,4.9c0,2.9-2.4,5.2-5.2,5.2c-1.7,0-2.7-0.6-4.9-2.9l-12-12.7v8.7c0,2-0.2,3.2-0.7,4.2
		c-0.7,1.5-2.5,2.6-4.3,2.6c-1.8,0-3.7-1.1-4.4-2.5c-0.5-1.1-0.7-2.3-0.7-4.2V11.3c0-2,0.2-3.2,0.7-4.2c0.7-1.4,2.5-2.5,4.3-2.5
		c1.9,0,3.7,1.1,4.4,2.5c0.5,1,0.7,2.3,0.7,4.2v19.1L190.3,20.6z"/>
	<path fill="#0A2B30" d="M9.4,91.5c0,2.6-2.1,4.7-4.7,4.7c-2.5,0-4.7-2.1-4.7-4.7c0-2.7,2.1-4.7,4.8-4.7C7.3,86.9,9.4,89,9.4,91.5"
		/>
	<path fill="#0A2B30" d="M33.1,72.1c1.8,1.3,2.4,2.2,2.4,3.7c0,2-1.6,3.6-3.7,3.6c-0.9,0-1.3-0.2-2.3-0.9c-1.6-1.2-2.6-1.6-4.2-1.6
		c-3.5,0-6.2,2.7-6.2,6.1c0,3.4,2.8,6.1,6.1,6.1c1.8,0,2.2-0.2,4.7-2c0.8-0.6,1.4-0.8,2.2-0.8c2,0,3.6,1.6,3.6,3.6
		c0,3.1-5.4,6.5-10.5,6.5c-7.4,0-13.5-6.1-13.5-13.5c0-7.3,6-13.3,13.4-13.3C28,69.5,30.9,70.5,33.1,72.1"/>
	<path fill="#0A2B30" d="M44.6,82.9c0,3.3,2.8,6.1,6.1,6.1c3.4,0,6.1-2.7,6.1-6.1c0-3.5-2.7-6.1-6.2-6.1
		C47.3,76.8,44.6,79.5,44.6,82.9 M64.1,82.9c0,7.4-6,13.4-13.4,13.4c-7.3,0-13.3-6-13.3-13.3c0-7.5,6-13.4,13.6-13.4
		C58.1,69.5,64.1,75.5,64.1,82.9"/>
	<path fill="#0A2B30" d="M67,80.5c0-6,5.1-11,11.2-11c2.7,0,5.2,1,7.6,2.9c2.3-2,4.8-2.9,7.6-2.9c6.2,0,11.3,5.1,11.3,11.4v10.4
		c0,1.4-0.2,2.3-0.5,3c-0.5,1.1-1.8,1.8-3.1,1.8c-1.3,0-2.7-0.8-3.1-1.8c-0.3-0.8-0.5-1.6-0.5-3v-9c0-1.8-0.1-2.5-0.4-3.4
		c-0.5-1.4-2-2.3-3.6-2.3c-1.4,0-2.7,0.8-3.3,2c-0.5,1-0.7,1.8-0.7,3.7v9c0,1.4-0.2,2.3-0.5,3c-0.5,1.1-1.8,1.8-3.1,1.8
		c-1.3,0-2.7-0.8-3.1-1.8c-0.3-0.8-0.5-1.6-0.5-3v-9c0-1.2-0.1-2.3-0.3-3c-0.4-1.6-2-2.7-3.7-2.7c-1.7,0-3.1,1-3.7,2.7
		c-0.3,0.8-0.3,1.5-0.3,3v9c0,1.4-0.2,2.3-0.5,3c-0.5,1.1-1.8,1.8-3.1,1.8c-1.3,0-2.7-0.8-3.1-1.8c-0.3-0.8-0.5-1.6-0.5-3V80.5z"/>
</g>
</svg>
